# xmcd CD database file
# Copyright (C) 1993-1997  Ti Kan
#
# Track frame offsets:
#	150
#	23605
#	47182
#	67082
#	81280
#	97020
#	112862
#
# Disc length: 2452 seconds
#
# Revision: 1
# Processed by: cddbd v1.4b41PL1 Copyright (c) Steve Scherf et al.
# Submitted via: xmcd 2.1 PL1
#
DISCID=55099207
DTITLE=Harvey Mandel and Barry Goldberg/Nothin' But the Blues - Blues f
DTITLE=rom Chicago
DYEAR=1900
DGENRE=
TTITLE0=Big Boss Man
TTITLE1=Low Down Funk
TTITLE2=Lost Love
TTITLE3=I'm Losing You
TTITLE4=You Got Me Cryin'
TTITLE5=Hootchie Kootchie Man
TTITLE6=Cherry Jam
EXTD=
EXTT0=
EXTT1=
EXTT2=
EXTT3=
EXTT4=
EXTT5=
EXTT6=
PLAYORDER=
